<?xml version="1.0" standalone="no"?>
<!DOCTYPE svg PUBLIC "-//W3C//DTD SVG 20010904//EN"
 "http://www.w3.org/TR/2001/REC-SVG-20010904/DTD/svg10.dtd">
<svg version="1.0" xmlns="http://www.w3.org/2000/svg"
 width="225.000000pt" height="225.000000pt" viewBox="0 0 225.000000 225.000000"
 preserveAspectRatio="xMidYMid meet">
<metadata>
Created by potrace 1.16, written by Peter Selinger 2001-2019
</metadata>
<g transform="translate(0.000000,225.000000) scale(0.100000,-0.100000)"
fill="#000000" stroke="none">
<path d="M1013 2170 c-313 -46 -574 -272 -664 -576 -29 -98 -36 -275 -16 -376
47 -223 148 -388 437 -713 78 -88 183 -213 233 -279 51 -65 99 -127 107 -138
15 -19 19 -15 97 88 44 60 156 195 248 299 266 302 357 432 421 605 164 439
-65 917 -506 1058 -119 38 -241 49 -357 32z m524 -520 l51 -155 1 -172 c1
-167 0 -172 -21 -187 -19 -14 -79 -16 -445 -16 -410 0 -424 1 -443 20 -18 18
-20 33 -20 181 l0 162 50 155 c28 85 53 158 56 163 3 5 162 8 362 7 l357 -3
52 -155z"/>
<path d="M797 1773 c-9 -16 -57 -181 -57 -197 0 -14 38 -16 385 -16 360 0 385
1 385 18 0 9 -13 58 -28 107 l-28 90 -326 3 c-180 1 -329 -1 -331 -5z"/>
<path d="M906 1243 c-14 -37 18 -43 219 -43 201 0 233 6 219 43 -5 15 -27 17
-219 17 -192 0 -214 -2 -219 -17z"/>
</g>
</svg>
